<svg version="1.1" xmlns="http://www.w3.org/2000/svg" viewBox="0 0 2080 671" width="2080" height="671">
  <!-- svg-source:excalidraw -->
  
  <defs>
    <style class="style-fonts">
      @font-face {
        font-family: "Virgil";
        src: url("https://excalidraw.com/Virgil.woff2");
      }
      @font-face {
        font-family: "Cascadia";
        src: url("https://excalidraw.com/Cascadia.woff2");
      }
      @font-face {
        font-family: "Assistant";
        src: url("https://excalidraw.com/Assistant-Regular.woff2");
      }
    </style>
    
  </defs>
  <rect x="0" y="0" width="2080" height="671" fill="#ffffff"></rect><g stroke-linecap="round" transform="translate(1398 10) rotate(0 336 320)"><path d="M0 0 C244.3 -1.39, 488.17 -0.72, 672 0 M0 0 C162.4 0.87, 325.37 1.54, 672 0 M672 0 C672.38 136.52, 672.32 271.99, 672 640 M672 0 C671.26 172.82, 671.57 346.5, 672 640 M672 640 C470.53 641.93, 269.19 642.29, 0 640 M672 640 C535.76 637.77, 399.5 637.86, 0 640 M0 640 C1.54 420.43, 1.33 201.54, 0 0 M0 640 C0.47 479.47, 0.47 319.35, 0 0" stroke="#1e1e1e" stroke-width="2" fill="none"></path></g><g stroke-linecap="round" transform="translate(10 14) rotate(0 336 323.5)"><path d="M0 0 C246.64 0.17, 494.34 0.78, 672 0 M0 0 C255.62 2.82, 511.69 2.83, 672 0 M672 0 C671.98 236.24, 672.13 471.55, 672 647 M672 0 C670.85 136.78, 670.71 273.64, 672 647 M672 647 C439.38 649.35, 207.85 650.01, 0 647 M672 647 C525 647.61, 378.32 647.69, 0 647 M0 647 C2.35 409.32, 1.08 172.6, 0 0 M0 647 C1.94 461.77, 1.53 276.79, 0 0" stroke="#1e1e1e" stroke-width="2" fill="none"></path></g><g transform="translate(285 313) rotate(0 56.19000244140625 12.5)"><text x="0" y="17.52" font-family="Virgil, Segoe UI Emoji" font-size="20px" fill="#1e1e1e" text-anchor="start" style="white-space: pre;" direction="ltr" dominant-baseline="alphabetic">ErrorScreen</text></g><g stroke-linecap="round" transform="translate(1404 19) rotate(0 329 183.5)"><path d="M0.03 -0.11 L657.67 -0.24 L658.9 367.06 L-0.69 366.82" stroke="none" stroke-width="0" fill="#b2f2bb"></path><path d="M0 0 C259.32 0.62, 516.8 0.39, 658 0 M0 0 C226.45 0.58, 452.31 0.98, 658 0 M658 0 C660.05 88.91, 660.89 177.08, 658 367 M658 0 C659.89 95.69, 659.79 192.3, 658 367 M658 367 C417.47 365.28, 177.83 366.4, 0 367 M658 367 C506.62 368.11, 355.84 368.03, 0 367 M0 367 C-2.22 226.51, -0.98 85.12, 0 0 M0 367 C1.52 258.25, 1.96 148.89, 0 0" stroke="#1e1e1e" stroke-width="2" fill="none"></path></g><g transform="translate(1716 408) rotate(0 23.510000228881836 12.5)"><text x="0" y="17.52" font-family="Virgil, Segoe UI Emoji" font-size="20px" fill="#1e1e1e" text-anchor="start" style="white-space: pre;" direction="ltr" dominant-baseline="alphabetic">Root</text></g><g transform="translate(1649 281) rotate(0 74.5300064086914 12.5)"><text x="0" y="17.52" font-family="Virgil, Segoe UI Emoji" font-size="20px" fill="#1e1e1e" text-anchor="start" style="white-space: pre;" direction="ltr" dominant-baseline="alphabetic">ImageContainer</text></g><g stroke-linecap="round" transform="translate(1417 28) rotate(0 315 120)"><path d="M1.99 0.49 L628.88 0.46 L631.24 240.43 L-1.63 241.62" stroke="none" stroke-width="0" fill="#a5d8ff"></path><path d="M0 0 C215.71 -1.19, 430.59 -2.01, 630 0 M0 0 C218.82 0.57, 437.88 0.05, 630 0 M630 0 C628.46 89.76, 628.93 178.06, 630 240 M630 0 C629.1 78.05, 629.2 156.74, 630 240 M630 240 C455.22 239.9, 280.64 240.49, 0 240 M630 240 C464.01 238.06, 298.15 238.21, 0 240 M0 240 C0 158.18, -2.39 78.08, 0 0 M0 240 C-0.54 150.03, -0.25 58.43, 0 0" stroke="#1e1e1e" stroke-width="2" fill="none"></path></g><g transform="translate(1705 139) rotate(0 28.93000030517578 12.5)"><text x="0" y="17.52" font-family="Virgil, Segoe UI Emoji" font-size="20px" fill="#1e1e1e" text-anchor="start" style="white-space: pre;" direction="ltr" dominant-baseline="alphabetic">Image</text></g><g stroke-linecap="round" transform="translate(1418 325) rotate(0 311 16)"><path d="M-0.52 0.36 L620.48 2 L620.01 31.79 L0.19 33.42" stroke="none" stroke-width="0" fill="#a5d8ff"></path><path d="M0 0 C214.33 -1.19, 428.89 -0.71, 622 0 M0 0 C133.3 1.45, 266.72 1.58, 622 0 M622 0 C621.63 8.4, 620.58 13.27, 622 32 M622 0 C622.51 8.47, 622.12 17.88, 622 32 M622 32 C449.09 32.8, 276.86 32.48, 0 32 M622 32 C466.95 30.99, 312.6 30.73, 0 32 M0 32 C-1.85 21.86, 0.33 13.15, 0 0 M0 32 C-0.06 23.18, 0.64 11.43, 0 0" stroke="#1e1e1e" stroke-width="2" fill="none"></path></g><g transform="translate(1654 329) rotate(0 75.66000366210938 12.5)"><text x="0" y="17.52" font-family="Virgil, Segoe UI Emoji" font-size="20px" fill="#1e1e1e" text-anchor="start" style="white-space: pre;" direction="ltr" dominant-baseline="alphabetic">MessageTooltip</text></g><g stroke-linecap="round" transform="translate(1409 438) rotate(0 326 39)"><path d="M-1.73 1.42 L652.08 1.56 L651.65 77.05 L-0.47 77.5" stroke="none" stroke-width="0" fill="#b2f2bb"></path><path d="M0 0 C200.48 -1.03, 401.89 0.21, 652 0 M0 0 C210.12 0.17, 419.71 0.71, 652 0 M652 0 C651.32 32.57, 651.6 62.4, 652 78 M652 0 C652.57 18.46, 651.17 34.49, 652 78 M652 78 C456.97 76.42, 261.55 76.55, 0 78 M652 78 C408.31 76.04, 164.36 76.59, 0 78 M0 78 C1.22 53.53, 0.86 27.93, 0 0 M0 78 C0.49 49.65, -0.44 20.9, 0 0" stroke="#1e1e1e" stroke-width="2" fill="none"></path></g><g stroke-linecap="round" transform="translate(1431 476) rotate(0 302.5 14.5)"><path d="M-2 -1.33 L606.22 0.77 L605.34 30.7 L0.72 30.59" stroke="none" stroke-width="0" fill="#a5d8ff"></path><path d="M0 0 C166.6 0.1, 333.13 -0.17, 605 0 M0 0 C192.91 0.75, 385.4 1.11, 605 0 M605 0 C605.01 7.88, 606.14 13.96, 605 29 M605 0 C605.14 9.89, 606.14 19.81, 605 29 M605 29 C458.46 30.06, 313.8 30.79, 0 29 M605 29 C444.37 28.63, 283.8 28.47, 0 29 M0 29 C-0.96 19.73, 1.17 9.69, 0 0 M0 29 C0.38 17.91, 0.58 7.24, 0 0" stroke="#1e1e1e" stroke-width="2" fill="none"></path></g><g transform="translate(1642 445) rotate(0 96.760009765625 12.5)"><text x="0" y="17.52" font-family="Virgil, Segoe UI Emoji" font-size="20px" fill="#1e1e1e" text-anchor="start" style="white-space: pre;" direction="ltr" dominant-baseline="alphabetic">TextInputContainer</text></g><g transform="translate(1687 479) rotate(0 51.160003662109375 12.5)"><text x="0" y="17.52" font-family="Virgil, Segoe UI Emoji" font-size="20px" fill="#1e1e1e" text-anchor="start" style="white-space: pre;" direction="ltr" dominant-baseline="alphabetic">TextInput</text></g><g stroke-linecap="round" transform="translate(1408 534) rotate(0 325 44.5)"><path d="M-1.59 1.69 L649.68 0.4 L650.06 89.22 L-1.19 89.54" stroke="none" stroke-width="0" fill="#b2f2bb"></path><path d="M0 0 C167.78 1.32, 337.3 1.89, 650 0 M0 0 C240.75 1.98, 481.19 2.25, 650 0 M650 0 C651.17 24.45, 649.14 51.2, 650 89 M650 0 C651.73 20.61, 651.19 39.88, 650 89 M650 89 C497.09 90.23, 343.48 90.58, 0 89 M650 89 C455.75 86.63, 261.66 86.7, 0 89 M0 89 C-0.88 60.06, 0.14 31.73, 0 0 M0 89 C0.33 53.12, 0.64 17.53, 0 0" stroke="#1e1e1e" stroke-width="2" fill="none"></path></g><g transform="translate(1661 544) rotate(0 80.06000518798828 12.5)"><text x="0" y="17.52" font-family="Virgil, Segoe UI Emoji" font-size="20px" fill="#1e1e1e" text-anchor="start" style="white-space: pre;" direction="ltr" dominant-baseline="alphabetic">ButtonContainer</text></g><g stroke-linecap="round" transform="translate(1422 581) rotate(0 106.5 17.5)"><path d="M-0.68 -1.78 L213.95 -0.61 L211.7 35.54 L0.36 36.76" stroke="none" stroke-width="0" fill="#a5d8ff"></path><path d="M0 0 C52.83 1.29, 109.76 -1.27, 213 0 M0 0 C80.53 -0.93, 160.64 -0.8, 213 0 M213 0 C214.3 7.51, 211.56 16.07, 213 35 M213 0 C212.34 11.29, 212.79 22.59, 213 35 M213 35 C126.78 34.83, 43.91 35.15, 0 35 M213 35 C140.22 33.74, 69.2 35.26, 0 35 M0 35 C0.47 26.28, 0.39 14.99, 0 0 M0 35 C0.55 25.66, 1.04 15.63, 0 0" stroke="#1e1e1e" stroke-width="2" fill="none"></path></g><g transform="translate(1494.0400009155273 586) rotate(0 34.459999084472656 12.5)"><text x="34.459999084472656" y="17.52" font-family="Virgil, Segoe UI Emoji" font-size="20px" fill="#1e1e1e" text-anchor="middle" style="white-space: pre;" direction="ltr" dominant-baseline="alphabetic">Button</text></g><g stroke-linecap="round" transform="translate(1652.5 580.5) rotate(0 106.5 17.5)"><path d="M1.54 0.43 L213.83 1.57 L212.43 37 L0.37 33.99" stroke="none" stroke-width="0" fill="#a5d8ff"></path><path d="M0 0 C75.4 -0.47, 146.13 2.35, 213 0 M0 0 C63.87 0.54, 126.62 2.22, 213 0 M213 0 C214.12 6.75, 212.49 14.22, 213 35 M213 0 C213.83 13.6, 212.94 25.98, 213 35 M213 35 C164 36.36, 118.03 33.52, 0 35 M213 35 C139.46 36.98, 67.78 35.51, 0 35 M0 35 C-0.07 24.9, 0.25 14.51, 0 0 M0 35 C0.92 22.79, 0.34 12.1, 0 0" stroke="#1e1e1e" stroke-width="2" fill="none"></path></g><g transform="translate(1724.5400009155273 585.5) rotate(0 34.459999084472656 12.5)"><text x="34.459999084472656" y="17.52" font-family="Virgil, Segoe UI Emoji" font-size="20px" fill="#1e1e1e" text-anchor="middle" style="white-space: pre;" direction="ltr" dominant-baseline="alphabetic">Button</text></g><g transform="translate(1887 590) rotate(0 10.960000038146973 12.5)"><text x="0" y="17.52" font-family="Virgil, Segoe UI Emoji" font-size="20px" fill="#1e1e1e" text-anchor="start" style="white-space: pre;" direction="ltr" dominant-baseline="alphabetic">....</text></g><g stroke-linecap="round" transform="translate(705 13.5) rotate(0 336 323.5)"><path d="M0 0 C222.81 -2.14, 444.88 -2.24, 672 0 M0 0 C207.73 0.49, 415.09 -0.18, 672 0 M672 0 C670.23 237.45, 669.32 474.95, 672 647 M672 0 C670.89 155.75, 670.95 311.42, 672 647 M672 647 C410.4 646.49, 149.92 646.87, 0 647 M672 647 C482.51 647.69, 292.71 648.17, 0 647 M0 647 C1.75 400.34, 0.38 153.49, 0 0 M0 647 C-2.32 393.29, -1.92 139.07, 0 0" stroke="#1e1e1e" stroke-width="2" fill="none"></path></g><g transform="translate(975 288) rotate(0 66.77000427246094 12.5)"><text x="0" y="17.52" font-family="Virgil, Segoe UI Emoji" font-size="20px" fill="#1e1e1e" text-anchor="start" style="white-space: pre;" direction="ltr" dominant-baseline="alphabetic">LoadingScreen</text></g></svg>